HIERARCHY
ROOT Hips
{
	OFFSET 0.00000 0.00000 0.00000
	CHANNELS 6 Xposition Yposition Zposition Zrotation Yrotation Xrotation 
	JOINT LHipJoint
	{
		OFFSET 0 0 0
		CHANNELS 3 Zrotation Yrotation Xrotation
		JOINT LeftUpLeg
		{
			OFFSET 1.58895 -1.83665 0.71753
			CHANNELS 3 Zrotation Yrotation Xrotation
			JOINT LeftLeg
			{
				OFFSET 2.50528 -6.88321 0.00000
				CHANNELS 3 Zrotation Yrotation Xrotation
				JOINT LeftFoot
				{
					OFFSET 2.63244 -7.23257 0.00000
					CHANNELS 3 Zrotation Yrotation Xrotation
					JOINT LeftToeBase
					{
						OFFSET 0.23691 -0.65090 1.72750
						CHANNELS 3 Zrotation Yrotation Xrotation
						End Site
						{
							OFFSET 0.00000 -0.00000 0.92561
						}
					}
				}
			}
		}
	}
	JOINT RHipJoint
	{
		OFFSET 0 0 0
		CHANNELS 3 Zrotation Yrotation Xrotation
		JOINT RightUpLeg
		{
			OFFSET -1.51435 -1.83665 0.71753
			CHANNELS 3 Zrotation Yrotation Xrotation
			JOINT RightLeg
			{
				OFFSET -2.54551 -6.99375 0.00000
				CHANNELS 3 Zrotation Yrotation Xrotation
				JOINT RightFoot
				{
					OFFSET -2.66027 -7.30903 0.00000
					CHANNELS 3 Zrotation Yrotation Xrotation
					JOINT RightToeBase
					{
						OFFSET -0.22981 -0.63138 2.03959
						CHANNELS 3 Zrotation Yrotation Xrotation
						End Site
						{
							OFFSET -0.00000 -0.00000 1.07060
						}
					}
				}
			}
		}
	}
	JOINT LowerBack
	{
		OFFSET 0 0 0
		CHANNELS 3 Zrotation Yrotation Xrotation
		JOINT Spine
		{
			OFFSET -0.02651 1.86275 -0.11152
			CHANNELS 3 Zrotation Yrotation Xrotation
			JOINT Spine1
			{
				OFFSET 0.01019 1.86224 0.04087
				CHANNELS 3 Zrotation Yrotation Xrotation
				JOINT Neck
				{
					OFFSET 0 0 0
					CHANNELS 3 Zrotation Yrotation Xrotation
					JOINT Neck1
					{
						OFFSET -0.01926 1.80512 0.08867
						CHANNELS 3 Zrotation Yrotation Xrotation
						JOINT Head
						{
							OFFSET 0.05516 1.76451 -0.38475
							CHANNELS 3 Zrotation Yrotation Xrotation
							End Site
							{
								OFFSET 0.01592 1.82587 -0.14001
							}
						}
					}
				}
				JOINT LeftShoulder
				{
					OFFSET 0 0 0
					CHANNELS 3 Zrotation Yrotation Xrotation
					JOINT LeftArm
					{
						OFFSET 3.47116 1.51376 0.14491
						CHANNELS 3 Zrotation Yrotation Xrotation
						JOINT LeftForeArm
						{
							OFFSET 4.78095 -0.00000 0.00000
							CHANNELS 3 Zrotation Yrotation Xrotation
							JOINT LeftHand
							{
								OFFSET 3.58615 -0.00000 -0.00000
								CHANNELS 3 Zrotation Yrotation Xrotation
								JOINT LeftFingerBase
								{
									OFFSET 0 0 0
									CHANNELS 3 Zrotation Yrotation Xrotation
									JOINT LeftHandIndex1
									{
										OFFSET 0.65981 -0.00000 0.00000
										CHANNELS 3 Zrotation Yrotation Xrotation
										End Site
										{
											OFFSET 0.53196 -0.00000 0.00000
										}
									}
								}
								JOINT LThumb
								{
									OFFSET 0 0 0
									CHANNELS 3 Zrotation Yrotation Xrotation
									End Site
									{
										OFFSET 0.54008 -0.00000 0.54008
									}
								}
							}
						}
					}
				}
				JOINT RightShoulder
				{
					OFFSET 0 0 0
					CHANNELS 3 Zrotation Yrotation Xrotation
					JOINT RightArm
					{
						OFFSET -3.31725 1.61216 0.35156
						CHANNELS 3 Zrotation Yrotation Xrotation
						JOINT RightForeArm
						{
							OFFSET -4.48913 -0.00000 0.00000
							CHANNELS 3 Zrotation Yrotation Xrotation
							JOINT RightHand
							{
								OFFSET -3.70510 -0.00000 0.00000
								CHANNELS 3 Zrotation Yrotation Xrotation
								JOINT RightFingerBase
								{
									OFFSET 0 0 0
									CHANNELS 3 Zrotation Yrotation Xrotation
									JOINT RightHandIndex1
									{
										OFFSET -0.44914 -0.00000 0.00000
										CHANNELS 3 Zrotation Yrotation Xrotation
										End Site
										{
											OFFSET -0.36211 -0.00000 0.00000
										}
									}
								}
								JOINT RThumb
								{
									OFFSET 0 0 0
									CHANNELS 3 Zrotation Yrotation Xrotation
									End Site
									{
										OFFSET -0.36763 -0.00000 0.36763
									}
								}
							}
						}
					}
				}
			}
		}
	}
}
MOTION
Frames: 6
Frame Time: .0083333
-0.5970 18.7422 5.7607 -2.7998 -3.9250 4.1658 0.0000 0.0000 0.0000 -11.9525 -7.9519 -3.8328 1.3866 7.4506 21.0573 1.7484 7.8453 -28.8524 7.9506 -16.0828 -52.3847 0.0000 0.0000 0.0000 0.0000 0.0000 0.0000 0.0000 0.0000 0.0000 -0.0000 -0.0000 0.0000 -0.0000 -0.0000 0.0000 -3.8960 1.8360 3.2123 -1.5152 2.2636 -0.1914 0.5106 1.1622 -2.0876 -0.8023 -2.4032 -12.9150 4.2094 -4.8261 34.1733 1.0793 -1.6524 13.9071 0.0000 -0.0000 0.0000 -78.8234 -19.9541 55.8930 71.2197 -58.6244 -43.8109 -0.0000 -0.0000 5.5293 -17.8486 -23.8206 7.4096 -7.1250 0.0000 -0.0000 -27.9056 7.0780 27.8973 0.0000 -0.0000 0.0000 81.4980 21.5970 62.0479 -81.8114 59.7451 -52.9146 0.0000 0.0000 13.1955 -19.3468 -61.0732 17.0825 7.1250 -0.0000 -0.0000 92.5027 78.2413 104.5586
-0.5985 18.7435 5.7585 -2.8959 -3.8963 4.1490 0.0000 0.0000 0.0000 -11.8702 -8.1540 -3.7493 1.3895 7.4580 21.0794 1.7560 8.0203 -29.0146 7.9652 -16.0936 -52.4373 0.0000 0.0000 0.0000 0.0000 0.0000 0.0000 0.0000 0.0000 0.0000 -0.0000 -0.0000 0.0000 -0.0000 -0.0000 0.0000 -3.7204 1.9033 3.3261 -1.5737 2.3507 -0.2591 0.3425 1.2057 -2.2149 -0.7697 -2.4578 -12.8908 4.2977 -4.9486 34.2204 1.0909 -1.6886 13.9301 -0.0000 0.0000 0.0000 -78.7987 -19.8879 56.0509 71.2458 -58.6284 -43.8332 -0.0000 -0.0000 5.4440 -17.6563 -23.8118 7.3228 -7.1250 0.0000 -0.0000 -27.8078 7.0987 27.7551 -0.0000 0.0000 0.0000 81.7859 22.3046 62.1538 -78.8914 59.5285 -50.3949 0.0000 0.0000 13.2598 -19.3945 -60.9718 17.1096 7.1250 -0.0000 -0.0000 92.1275 78.2791 104.1382
-0.5996 18.7443 5.7559 -2.9518 -3.8308 4.1348 0.0000 0.0000 0.0000 -11.8142 -8.2829 -3.7120 1.3917 7.4636 21.0962 1.7538 8.0725 -29.0336 7.9670 -16.0949 -52.4437 0.0000 0.0000 0.0000 0.0000 0.0000 0.0000 0.0000 0.0000 0.0000 -0.0000 -0.0000 0.0000 -0.0000 -0.0000 0.0000 -3.6731 1.9186 3.2797 -1.5724 2.3768 -0.2215 0.3186 1.2170 -2.1491 -0.7210 -2.4693 -12.9910 4.2570 -4.9671 34.2538 1.0623 -1.6929 13.9656 0.0000 0.0000 0.0000 -78.8445 -19.9813 56.0734 71.1234 -58.6099 -43.7287 -0.0000 -0.0000 5.3973 -17.4768 -23.9518 7.2841 -7.1250 0.0000 -0.0000 -27.6968 6.9815 27.6808 0.0000 0.0000 0.0000 82.0100 23.1870 62.3965 -75.6508 59.2075 -47.6063 0.0000 0.0000 13.4070 -19.5595 -60.8150 17.2330 7.1250 -0.0000 -0.0000 91.6559 78.3643 103.5688
-0.6005 18.7447 5.7531 -2.9413 -3.7837 4.1139 0.0000 0.0000 0.0000 -11.8231 -8.3052 -3.7058 1.3934 7.4680 21.1095 1.7575 8.0434 -29.0391 7.9564 -16.0871 -52.4055 0.0000 0.0000 0.0000 0.0000 0.0000 0.0000 0.0000 0.0000 0.0000 -0.0000 -0.0000 0.0000 -0.0000 -0.0000 0.0000 -3.7607 1.9184 3.0976 -1.5494 2.3873 -0.0960 0.4000 1.2191 -1.9226 -0.7977 -2.4829 -13.1924 4.3268 -4.9948 34.2991 1.0979 -1.7008 14.0371 0.0000 0.0000 0.0000 -78.9126 -20.2244 56.0254 70.8863 -58.5736 -43.5263 -0.0000 -0.0000 5.3750 -17.4694 -24.2200 7.3566 -7.1250 0.0000 -0.0000 -27.6579 6.7354 27.7799 0.0000 0.0000 0.0000 82.2015 24.0531 62.6941 -72.5433 58.8166 -44.9421 0.0000 0.0000 13.3472 -19.8532 -60.8044 17.4949 7.1250 -0.0000 -0.0000 91.9825 78.4554 103.8023
-0.6018 18.7445 5.7509 -2.9107 -3.7904 4.0911 0.0000 0.0000 0.0000 -11.8610 -8.3123 -3.6818 1.3940 7.4696 21.1142 1.7744 8.0137 -29.1319 7.9280 -16.0660 -52.3028 0.0000 0.0000 0.0000 0.0000 0.0000 0.0000 0.0000 0.0000 0.0000 -0.0000 -0.0000 0.0000 -0.0000 -0.0000 0.0000 -4.0557 1.8965 2.6176 -1.4210 2.3873 0.2259 0.7207 1.2101 -1.3401 -0.9631 -2.4989 -13.5201 4.3474 -4.9770 34.2237 1.1333 -1.7072 14.0812 -0.0000 0.0000 0.0000 -79.0742 -20.7306 55.8259 70.6687 -58.5398 -43.3407 -0.0000 -0.0000 5.3976 -17.5416 -24.3515 7.4259 -7.1250 0.0000 -0.0000 -27.6779 6.6099 27.8829 -0.0000 0.0000 0.0000 82.2531 25.0763 63.0877 -69.8842 58.4144 -42.6720 0.0000 0.0000 12.9967 -20.0817 -61.0531 17.7402 7.1250 -0.0000 -0.0000 93.3636 78.4627 105.1900
-0.6034 18.7436 5.7503 -2.8920 -3.8068 4.0665 0.0000 0.0000 0.0000 -11.8806 -8.2842 -3.6559 1.3931 7.4673 21.1072 1.7855 7.9650 -29.1739 7.9081 -16.0512 -52.2308 0.0000 0.0000 0.0000 0.0000 0.0000 0.0000 0.0000 0.0000 0.0000 -0.0000 -0.0000 0.0000 -0.0000 -0.0000 0.0000 -4.1134 1.9659 2.6169 -1.4339 2.4777 0.2224 0.7357 1.2556 -1.3491 -1.0362 -2.5806 -13.5426 4.3163 -5.0654 34.2407 1.1195 -1.7578 14.0982 0.0000 0.0000 0.0000 -79.1356 -20.8277 55.9783 70.5504 -58.5212 -43.2398 -0.0000 -0.0000 5.4000 -17.5258 -24.3125 7.4079 -7.1250 0.0000 -0.0000 -27.6748 6.6467 27.8564 0.0000 0.0000 0.0000 82.3802 25.3498 63.2765 -68.0689 58.1023 -41.1281 0.0000 0.0000 12.9273 -20.2350 -61.3204 17.9211 7.1250 -0.0000 -0.0000 94.7195 78.4354 106.5823
